<?xml version="1.0" standalone="no"?>
<!DOCTYPE svg PUBLIC "-//W3C//DTD SVG 20010904//EN"
 "http://www.w3.org/TR/2001/REC-SVG-20010904/DTD/svg10.dtd">
<svg version="1.0" xmlns="http://www.w3.org/2000/svg"
 width="1179.000000pt" height="1280.000000pt" viewBox="0 0 1179.000000 1280.000000"
 preserveAspectRatio="xMidYMid meet">
<g transform="translate(0.000000,1280.000000) scale(0.100000,-0.100000)"
fill="#ffdc04" stroke="none">
<path d="M129 12778 c5 -13 45 -108 90 -212 44 -105 79 -191 78 -192 -1 -1
-65 2 -142 6 -76 5 -141 7 -143 5 -2 -2 61 -158 141 -347 506 -1200 834 -2036
1157 -2958 701 -1999 1139 -3869 1384 -5900 33 -274 96 -864 96 -904 0 -5 71
101 158 235 673 1038 1061 1548 1544 2026 253 250 579 527 597 507 14 -16 613
-843 818 -1129 604 -845 998 -1461 1349 -2110 265 -491 540 -1105 729 -1630
32 -88 59 -162 61 -163 1 -2 82 79 180 180 1113 1150 1917 1766 3096 2368
l248 127 -64 85 -64 84 174 87 c135 67 174 91 174 106 0 29 -410 561 -724 941
-736 890 -1539 1685 -2366 2341 -291 231 -781 590 -963 705 -26 16 -47 31 -47
34 0 8 291 162 415 221 412 192 681 279 1435 459 157 37 304 73 327 79 l42 12
-118 107 c-66 59 -120 109 -120 113 -1 3 108 31 242 64 133 32 245 60 249 62
8 4 -254 244 -437 399 -845 716 -1969 1440 -3303 2128 -2051 1057 -4320 1865
-5747 2046 -168 21 -400 40 -497 40 -56 0 -57 -1 -49 -22z"/>
</g>
</svg>
