<svg xmlns="http://www.w3.org/2000/svg" xmlns:xlink="http://www.w3.org/1999/xlink" id="e1a9485c-0f43-4303-9e0d-5e4a75181bc4" data-name="Layer 1" width="858.07" height="804.61" viewBox="0 0 858.07 804.61" src="https://42f2671d685f51e10fc6-b9fcecea3e50b3b59bdc28dead054ebc.ssl.cf5.rackcdn.com/illustrations/gift1_sgf8.svg" class="item__image" alt="Gift"><defs><linearGradient id="fa2440bd-da04-40b7-bd3b-ddfb35b0a42b" x1="592.9" y1="385.11" x2="592.9" y2="236.35" gradientUnits="userSpaceOnUse"><stop offset="0" stop-color="gray" stop-opacity="0.25"></stop><stop offset="0.54" stop-color="gray" stop-opacity="0.12"></stop><stop offset="1" stop-color="gray" stop-opacity="0.1"></stop></linearGradient><linearGradient id="07fe1e9f-5680-428a-971a-ff84304916dd" x1="420.04" y1="804.61" x2="420.04" y2="320.21" xlink:href="#fa2440bd-da04-40b7-bd3b-ddfb35b0a42b"></linearGradient><linearGradient id="00ef2338-96af-4b11-80f8-5a4c3164adbb" x1="811.83" y1="471.54" x2="811.83" y2="185.81" xlink:href="#fa2440bd-da04-40b7-bd3b-ddfb35b0a42b"></linearGradient></defs><title>gift1</title><g opacity="0.5"><rect x="107.3" y="37.85" width="3.33" height="18.87" fill="#47e6b1"></rect><rect x="276.52" y="77.53" width="3.33" height="18.87" transform="translate(195.93 -230.9) rotate(90)" fill="#47e6b1"></rect></g><g opacity="0.5"><rect x="811.66" y="769.53" width="3.33" height="18.87" fill="#47e6b1"></rect><rect x="980.89" y="809.21" width="3.33" height="18.87" transform="translate(1631.97 -203.59) rotate(90)" fill="#47e6b1"></rect></g><g opacity="0.5"><rect x="812.98" y="215.34" width="3.33" height="18.87" fill="#47e6b1"></rect><rect x="982.2" y="255.02" width="3.33" height="18.87" transform="translate(1079.1 -759.09) rotate(90)" fill="#47e6b1"></rect></g><g opacity="0.5"><rect x="846.98" y="45.34" width="3.33" height="18.87" fill="#47e6b1"></rect><rect x="1016.2" y="85.02" width="3.33" height="18.87" transform="translate(943.1 -963.09) rotate(90)" fill="#47e6b1"></rect></g><g opacity="0.5"><rect x="267.08" y="36.27" width="3.33" height="18.87" fill="#47e6b1"></rect><rect x="436.31" y="75.96" width="3.33" height="18.87" transform="translate(354.13 -392.27) rotate(90)" fill="#47e6b1"></rect></g><path d="M230.44,357.88a4.08,4.08,0,0,1-2.27-4.93,2,2,0,0,0,.09-.45h0a2,2,0,0,0-3.67-1.36h0a2,2,0,0,0-.23.4,4.08,4.08,0,0,1-4.93,2.27,2,2,0,0,0-.45-.09h0a2,2,0,0,0-1.36,3.67h0a2,2,0,0,0,.4.23,4.08,4.08,0,0,1,2.27,4.93,2,2,0,0,0-.09.45h0a2,2,0,0,0,3.67,1.36h0a2,2,0,0,0,.23-.4,4.08,4.08,0,0,1,4.93-2.27,2,2,0,0,0,.45.09h0a2,2,0,0,0,1.36-3.67h0A2,2,0,0,0,230.44,357.88Z" transform="translate(-169.23 -39.68)" fill="#4d8af0" opacity="0.5"></path><path d="M291.92,736.22a4.08,4.08,0,0,1-2.27-4.93,2,2,0,0,0,.09-.45h0a2,2,0,0,0-3.67-1.36h0a2,2,0,0,0-.23.4,4.08,4.08,0,0,1-4.93,2.27,2,2,0,0,0-.45-.09h0a2,2,0,0,0-1.36,3.67h0a2,2,0,0,0,.4.23,4.08,4.08,0,0,1,2.27,4.93,2,2,0,0,0-.09.45h0a2,2,0,0,0,3.67,1.36h0a2,2,0,0,0,.23-.4,4.08,4.08,0,0,1,4.93-2.27,2,2,0,0,0,.45.09h0a2,2,0,0,0,1.36-3.67h0A2,2,0,0,0,291.92,736.22Z" transform="translate(-169.23 -39.68)" fill="#4d8af0" opacity="0.5"></path><path d="M850.92,235.22a4.08,4.08,0,0,1-2.27-4.93,2,2,0,0,0,.09-.45h0a2,2,0,0,0-3.67-1.36h0a2,2,0,0,0-.23.4,4.08,4.08,0,0,1-4.93,2.27,2,2,0,0,0-.45-.09h0a2,2,0,0,0-1.36,3.67h0a2,2,0,0,0,.4.23,4.08,4.08,0,0,1,2.27,4.93,2,2,0,0,0-.09.45h0a2,2,0,0,0,3.67,1.36h0a2,2,0,0,0,.23-.4,4.08,4.08,0,0,1,4.93-2.27,2,2,0,0,0,.45.09h0a2,2,0,0,0,1.36-3.67h0A2,2,0,0,0,850.92,235.22Z" transform="translate(-169.23 -39.68)" fill="#4d8af0" opacity="0.5"></path><path d="M843.47,325.61a4.08,4.08,0,0,1-2.27-4.93,2,2,0,0,0,.09-.45h0a2,2,0,0,0-3.67-1.36h0a2,2,0,0,0-.23.4,4.08,4.08,0,0,1-4.93,2.27,2,2,0,0,0-.45-.09h0a2,2,0,0,0-1.36,3.67h0a2,2,0,0,0,.4.23,4.08,4.08,0,0,1,2.27,4.93,2,2,0,0,0-.09.45h0a2,2,0,0,0,3.67,1.36h0a2,2,0,0,0,.23-.4,4.08,4.08,0,0,1,4.93-2.27,2,2,0,0,0,.45.09h0a2,2,0,0,0,1.36-3.67h0A2,2,0,0,0,843.47,325.61Z" transform="translate(-169.23 -39.68)" fill="#4d8af0" opacity="0.5"></path><path d="M844,47.24a4.08,4.08,0,0,1-2.27-4.93,2,2,0,0,0,.09-.45h0a2,2,0,0,0-3.67-1.36h0a2,2,0,0,0-.23.4A4.08,4.08,0,0,1,833,43.18a2,2,0,0,0-.45-.09h0a2,2,0,0,0-1.36,3.67h0a2,2,0,0,0,.4.23,4.08,4.08,0,0,1,2.27,4.93,2,2,0,0,0-.09.45h0a2,2,0,0,0,3.67,1.36h0a2,2,0,0,0,.23-.4A4.08,4.08,0,0,1,842.56,51a2,2,0,0,0,.45.09h0a2,2,0,0,0,1.36-3.67h0A2,2,0,0,0,844,47.24Z" transform="translate(-169.23 -39.68)" fill="#4d8af0" opacity="0.5"></path><path d="M1012.16,504.28a4.08,4.08,0,0,1-2.27-4.93,2,2,0,0,0,.09-.45h0a2,2,0,0,0-3.67-1.36h0a2,2,0,0,0-.23.4,4.08,4.08,0,0,1-4.93,2.27,2,2,0,0,0-.45-.09h0a2,2,0,0,0-1.36,3.67h0a2,2,0,0,0,.4.23A4.08,4.08,0,0,1,1002,509a2,2,0,0,0-.09.45h0a2,2,0,0,0,3.67,1.36h0a2,2,0,0,0,.23-.4,4.08,4.08,0,0,1,4.93-2.27,2,2,0,0,0,.45.09h0a2,2,0,0,0,1.36-3.67h0A2,2,0,0,0,1012.16,504.28Z" transform="translate(-169.23 -39.68)" fill="#4d8af0" opacity="0.5"></path><circle cx="61.77" cy="166.12" r="6.66" fill="#f55f44" opacity="0.5"></circle><circle cx="12.94" cy="644.43" r="6.66" fill="#f55f44" opacity="0.5"></circle><circle cx="439.66" cy="45.68" r="6.66" fill="#f55f44" opacity="0.5"></circle><circle cx="506.66" cy="172.68" r="6.66" fill="#f55f44" opacity="0.5"></circle><circle cx="6.66" cy="478.68" r="6.66" fill="#f55f44" opacity="0.5"></circle><circle cx="267.5" cy="155.34" r="6.66" fill="#47e6b1" opacity="0.5"></circle><circle cx="725.6" cy="597.75" r="6.66" fill="#f55f44" opacity="0.5"></circle><polygon points="613.17 220.75 612.03 224.17 609.74 220.75 613.17 220.75" opacity="0.1"></polygon></svg>
